<svg width="320" height="84" viewBox="0 0 320 84" fill="none" xmlns="http://www.w3.org/2000/svg">
<rect width="320" height="84" rx="8" fill="#F3F2F9"/>
<path d="M285 36.75L291 42.75L285 48.75" stroke="#2C2C2E" stroke-width="1.323" stroke-linecap="square"/>
<path d="M20.9103 34.4348C21.5396 32.2421 24.3981 33.4885 25.7487 34.3858L23.7131 42.8661C22.5167 40.9693 20.281 36.6274 20.9103 34.4348Z" fill="url(#paint0_linear_102_12287)"/>
<path d="M74.3769 33.8989C73.8556 31.5631 70.9346 32.6684 69.5392 33.5131L71.3407 42.6861C72.6313 40.7858 74.8981 36.2347 74.3769 33.8989Z" fill="url(#paint1_linear_102_12287)"/>
<g filter="url(#filter0_i_102_12287)">
<ellipse cx="47.5871" cy="42" rx="24.3254" ry="23" fill="url(#paint2_linear_102_12287)"/>
</g>
<path d="M33.5195 41.3702C33.5195 44.8511 36.3413 47.6729 39.8222 47.6729C43.3032 47.6729 46.125 44.8511 46.125 41.3702C46.125 37.8892 43.3032 35.0674 39.8222 35.0674C36.3413 35.0674 33.5195 37.8892 33.5195 41.3702Z" fill="white"/>
<path d="M48.7734 41.3702C48.7734 44.8511 51.5952 47.6729 55.0761 47.6729C58.5571 47.6729 61.3789 44.8511 61.3789 41.3702C61.3789 37.8892 58.5571 35.0674 55.0761 35.0674C51.5952 35.0674 48.7734 37.8892 48.7734 41.3702Z" fill="white"/>
<path d="M35.5391 29.0693C38.0271 31.4152 43.9203 34.6995 47.5884 29.0693" stroke="black" stroke-width="0.890395" stroke-linecap="round" stroke-linejoin="bevel"/>
<path d="M47.5859 29.0693C50.074 31.4152 55.9672 34.6995 59.6353 29.0693" stroke="black" stroke-width="0.890395" stroke-linecap="round" stroke-linejoin="bevel"/>
<path d="M50.5065 41.3703C50.5065 43.8947 52.553 45.9412 55.0775 45.9412C57.602 45.9412 59.6484 43.8947 59.6484 41.3703C59.6484 38.8458 57.602 36.7993 55.0775 36.7993C52.553 36.7993 50.5065 38.8458 50.5065 41.3703Z" fill="black"/>
<path d="M35.2526 41.3703C35.2526 43.8947 37.2991 45.9412 39.8236 45.9412C42.348 45.9412 44.3945 43.8947 44.3945 41.3703C44.3945 38.8458 42.348 36.7993 39.8236 36.7993C37.2991 36.7993 35.2526 38.8458 35.2526 41.3703Z" fill="black"/>
<ellipse cx="47.6722" cy="53.5885" rx="3.27762" ry="3.54311" fill="black"/>
<path d="M95.1989 30.7956C95.1657 30.4751 95.0571 30.2007 94.8729 29.9724C94.6924 29.7403 94.4475 29.5635 94.1381 29.442C93.8287 29.3204 93.4696 29.2597 93.0608 29.2597C92.6409 29.2597 92.2762 29.3241 91.9669 29.453C91.6575 29.5783 91.4199 29.7532 91.2541 29.9779C91.0884 30.1989 91.0055 30.453 91.0055 30.7403C91.0018 31.1676 91.1786 31.5009 91.5359 31.7403C91.8932 31.9797 92.3591 32.1676 92.9337 32.3039L93.9945 32.5691C94.9705 32.7974 95.768 33.1713 96.3867 33.6906C97.0055 34.2063 97.3149 34.9171 97.3149 35.8232C97.3149 36.4862 97.1455 37.07 96.8066 37.5746C96.4678 38.0792 95.9742 38.4715 95.326 38.7514C94.6814 39.0313 93.9153 39.1713 93.0276 39.1713C92.151 39.1713 91.3886 39.035 90.7403 38.7624C90.0921 38.4899 89.5875 38.0921 89.2265 37.5691C88.8656 37.0424 88.6703 36.4088 88.6409 35.6685H90.6409C90.6703 36.0516 90.7901 36.3757 91 36.6409C91.2099 36.9024 91.488 37.0994 91.8343 37.232C92.1842 37.3646 92.5764 37.4309 93.011 37.4309C93.453 37.4309 93.8453 37.3628 94.1878 37.2265C94.5341 37.0902 94.8029 36.9006 94.9945 36.6575C95.186 36.4107 95.2818 36.1271 95.2818 35.8066C95.2818 35.5267 95.1989 35.2891 95.0331 35.0939C94.8674 34.8987 94.639 34.7348 94.3481 34.6022C94.0571 34.4696 93.6888 34.3462 93.2431 34.232L91.9558 33.9006C89.9448 33.3886 88.9411 32.3757 88.9448 30.8619C88.9411 30.2063 89.1179 29.6262 89.4751 29.1215C89.8324 28.6169 90.326 28.2265 90.9558 27.9503C91.5893 27.6703 92.3002 27.5304 93.0884 27.5304C93.8766 27.5304 94.5764 27.6703 95.1878 27.9503C95.8029 28.2265 96.2818 28.6114 96.6243 29.105C96.9705 29.5985 97.1492 30.1621 97.1602 30.7956H95.1989ZM107.715 27.6851V35.0773C107.715 35.8803 107.524 36.5912 107.141 37.2099C106.761 37.8287 106.224 38.3112 105.527 38.6575C104.835 39 104.036 39.1713 103.13 39.1713C102.22 39.1713 101.417 39 100.721 38.6575C100.028 38.3149 99.4924 37.8343 99.1131 37.2155C98.7337 36.593 98.544 35.8803 98.544 35.0773V27.6851H100.572V34.9116C100.572 35.3831 100.677 35.8048 100.887 36.1768C101.096 36.5451 101.395 36.8343 101.782 37.0442C102.168 37.2505 102.618 37.3536 103.13 37.3536C103.642 37.3536 104.089 37.2505 104.472 37.0442C104.859 36.8343 105.155 36.5451 105.362 36.1768C105.572 35.8048 105.677 35.3831 105.677 34.9116V27.6851H107.715ZM109.345 27.6851H113.577C114.428 27.6851 115.152 27.8361 115.749 28.1381C116.349 28.4365 116.802 28.8582 117.108 29.4033C117.413 29.9448 117.566 30.5783 117.566 31.3039C117.566 32.0773 117.393 32.7403 117.047 33.2928C116.701 33.8416 116.194 34.2486 115.528 34.5138L117.981 39H115.704L113.483 34.8508H111.373V39H109.345V27.6851ZM113.279 33.1602C114.03 33.1602 114.587 33.0037 114.947 32.6906C115.308 32.3775 115.489 31.9153 115.489 31.3039C115.489 30.6851 115.307 30.2118 114.942 29.884C114.577 29.5525 114.019 29.3867 113.268 29.3867H111.373V33.1602H113.279ZM118.85 27.6851H123.082C123.929 27.6851 124.651 27.8453 125.247 28.1657C125.848 28.4825 126.301 28.9245 126.607 29.4917C126.916 30.0552 127.071 30.7017 127.071 31.4309C127.071 32.1639 126.916 32.8122 126.607 33.3757C126.297 33.9392 125.84 34.3794 125.236 34.6961C124.632 35.0129 123.905 35.1713 123.054 35.1713H120.877V39H118.85V27.6851ZM122.783 33.4972C123.277 33.4972 123.688 33.4107 124.015 33.2376C124.347 33.0645 124.592 32.8232 124.75 32.5138C124.912 32.2044 124.993 31.8435 124.993 31.4309C124.993 30.8011 124.807 30.3039 124.435 29.9392C124.067 29.5709 123.513 29.3867 122.772 29.3867H120.877V33.4972H122.783ZM128.245 27.6851H132.477C133.327 27.6851 134.051 27.8361 134.648 28.1381C135.248 28.4365 135.701 28.8582 136.007 29.4033C136.313 29.9448 136.466 30.5783 136.466 31.3039C136.466 32.0773 136.293 32.7403 135.946 33.2928C135.6 33.8416 135.094 34.2486 134.427 34.5138L136.88 39H134.604L132.383 34.8508H130.272V39H128.245V27.6851ZM132.178 33.1602C132.93 33.1602 133.486 33.0037 133.847 32.6906C134.208 32.3775 134.388 31.9153 134.388 31.3039C134.388 30.6851 134.206 30.2118 133.841 29.884C133.477 29.5525 132.919 29.3867 132.167 29.3867H130.272V33.1602H132.178ZM139.777 39H137.749V27.6851H139.777V39ZM147.553 30.7956C147.52 30.4751 147.411 30.2007 147.227 29.9724C147.047 29.7403 146.802 29.5635 146.492 29.442C146.183 29.3204 145.824 29.2597 145.415 29.2597C144.995 29.2597 144.631 29.3241 144.321 29.453C144.012 29.5783 143.774 29.7532 143.609 29.9779C143.443 30.1989 143.36 30.453 143.36 30.7403C143.356 31.1676 143.533 31.5009 143.89 31.7403C144.248 31.9797 144.713 32.1676 145.288 32.3039L146.349 32.5691C147.325 32.7974 148.122 33.1713 148.741 33.6906C149.36 34.2063 149.669 34.9171 149.669 35.8232C149.669 36.4862 149.5 37.07 149.161 37.5746C148.822 38.0792 148.329 38.4715 147.68 38.7514C147.036 39.0313 146.27 39.1713 145.382 39.1713C144.505 39.1713 143.743 39.035 143.095 38.7624C142.446 38.4899 141.942 38.0921 141.581 37.5691C141.22 37.0424 141.025 36.4088 140.995 35.6685H142.995C143.025 36.0516 143.144 36.3757 143.354 36.6409C143.564 36.9024 143.842 37.0994 144.189 37.232C144.539 37.3646 144.931 37.4309 145.365 37.4309C145.807 37.4309 146.2 37.3628 146.542 37.2265C146.888 37.0902 147.157 36.9006 147.349 36.6575C147.54 36.4107 147.636 36.1271 147.636 35.8066C147.636 35.5267 147.553 35.2891 147.388 35.0939C147.222 34.8987 146.993 34.7348 146.702 34.6022C146.411 34.4696 146.043 34.3462 145.597 34.232L144.31 33.9006C142.299 33.3886 141.295 32.3757 141.299 30.8619C141.295 30.2063 141.472 29.6262 141.83 29.1215C142.187 28.6169 142.68 28.2265 143.31 27.9503C143.944 27.6703 144.655 27.5304 145.443 27.5304C146.231 27.5304 146.931 27.6703 147.542 27.9503C148.157 28.2265 148.636 28.6114 148.979 29.105C149.325 29.5985 149.504 30.1621 149.515 30.7956H147.553ZM150.898 27.6851H158.246V29.3978H152.926V32.4807H157.86V34.1878H152.926V37.2873H158.285V39H150.898V27.6851Z" fill="black"/>
<path d="M88.625 58V57.2188L91.0762 54.748C91.8525 53.9424 92.2383 53.4932 92.2383 52.873C92.2383 52.1748 91.6719 51.7305 90.9297 51.7305C90.1436 51.7305 89.6455 52.2285 89.6406 52.9805H88.625C88.6152 51.6865 89.6016 50.832 90.9492 50.832C92.3115 50.832 93.2539 51.6963 93.2637 52.8438C93.2539 53.6348 92.8828 54.2646 91.5547 55.5684L90.1191 57.0234V57.082H93.3809V58H88.625ZM96.7332 58.0977C95.0975 58.0977 94.1355 56.7793 94.1355 54.4648C94.1355 52.165 95.1072 50.832 96.7332 50.832C98.3543 50.832 99.326 52.165 99.3309 54.4648C99.326 56.7793 98.3689 58.0977 96.7332 58.0977ZM95.2098 54.4648C95.2049 56.2275 95.7762 57.1699 96.7332 57.1699C97.6854 57.1699 98.2566 56.2275 98.2566 54.4648C98.2566 52.707 97.6805 51.7451 96.7332 51.7402C95.7811 51.7451 95.2098 52.707 95.2098 54.4648ZM100.144 58V57.2188L102.595 54.748C103.372 53.9424 103.757 53.4932 103.757 52.873C103.757 52.1748 103.191 51.7305 102.449 51.7305C101.663 51.7305 101.165 52.2285 101.16 52.9805H100.144C100.134 51.6865 101.121 50.832 102.468 50.832C103.831 50.832 104.773 51.6963 104.783 52.8438C104.773 53.6348 104.402 54.2646 103.074 55.5684L101.638 57.0234V57.082H104.9V58H100.144ZM105.479 56.623V55.7539L108.604 50.9297H109.932V55.7148H110.899V56.623H109.932V58H108.916V56.623H105.479ZM106.612 55.7148H108.916V52.209H108.838L106.612 55.6562V55.7148Z" fill="#636267"/>
<path d="M119.617 50.0898V56.5547H118.689V53.5762H116.287V52.834H118.689V51.916H116.287V51.1738H118.689V50.0898H119.617ZM112.84 55.3047V50.6953H113.758V54.5234C114.92 54.5186 116.023 54.4551 117.273 54.2207L117.371 54.9824C115.984 55.2412 114.798 55.2949 113.514 55.3047H112.84ZM113.914 58.6445V55.9883H114.852V57.8926H119.842V58.6445H113.914Z" fill="#636267"/>
<path d="M126.311 50.9297V58H125.227V52.0039H125.188L123.498 53.1074V52.082L125.256 50.9297H126.311ZM127.807 58V57.2188L130.259 54.748C131.035 53.9424 131.421 53.4932 131.421 52.873C131.421 52.1748 130.854 51.7305 130.112 51.7305C129.326 51.7305 128.828 52.2285 128.823 52.9805H127.807C127.798 51.6865 128.784 50.832 130.132 50.832C131.494 50.832 132.436 51.6963 132.446 52.8438C132.436 53.6348 132.065 54.2646 130.737 55.5684L129.302 57.0234V57.082H132.563V58H127.807Z" fill="#636267"/>
<path d="M141.598 50.0898V55.2168H140.67V54.7969H138.961V54.2109H140.67V50.0898H141.598ZM134.303 53.3125C135.997 53.3174 138.136 53.2979 140.025 53.0977L140.074 53.6934C139.249 53.8105 138.39 53.8789 137.555 53.9229V55.2363H136.637V53.957C135.851 53.9814 135.094 53.9814 134.41 53.9766L134.303 53.3125ZM134.957 51.5547C134.952 50.7539 135.816 50.2363 137.145 50.2363C138.448 50.2363 139.322 50.7539 139.332 51.5547C139.322 52.3701 138.448 52.8633 137.145 52.8633C135.816 52.8633 134.952 52.3701 134.957 51.5547ZM135.611 56.1543V55.5098H141.598V57.3945H136.559V58.0684H141.861V58.7422H135.65V56.7793H140.68V56.1543H135.611ZM135.826 51.5547C135.821 51.9697 136.339 52.2383 137.145 52.2383C137.94 52.2383 138.453 51.9697 138.453 51.5547C138.453 51.1348 137.94 50.8613 137.145 50.8613C136.339 50.8613 135.821 51.1348 135.826 51.5547Z" fill="#636267"/>
<path d="M145.625 58V57.2188L148.076 54.748C148.853 53.9424 149.238 53.4932 149.238 52.873C149.238 52.1748 148.672 51.7305 147.93 51.7305C147.144 51.7305 146.646 52.2285 146.641 52.9805H145.625C145.615 51.6865 146.602 50.832 147.949 50.832C149.312 50.832 150.254 51.6963 150.264 52.8438C150.254 53.6348 149.883 54.2646 148.555 55.5684L147.119 57.0234V57.082H150.381V58H145.625ZM150.96 56.623V55.7539L154.085 50.9297H155.413V55.7148H156.38V56.623H155.413V58H154.397V56.623H150.96ZM152.093 55.7148H154.397V52.209H154.319L152.093 55.6562V55.7148Z" fill="#636267"/>
<path d="M159.803 50.373C161.121 50.3828 162.093 51.1885 162.098 52.3359C162.093 53.4883 161.121 54.2891 159.803 54.2891C158.47 54.2891 157.503 53.4883 157.498 52.3359C157.503 51.1885 158.47 50.3828 159.803 50.373ZM158.406 52.3359C158.401 53.0586 158.997 53.5371 159.803 53.5371C160.604 53.5371 161.199 53.0586 161.199 52.3359C161.199 51.623 160.604 51.1445 159.803 51.1543C158.997 51.1445 158.401 51.623 158.406 52.3359ZM158.826 55.6758V54.9336H164.578V57.1406H159.754V57.9805H164.871V58.7227H158.855V56.4473H163.66V55.6758H158.826ZM163.65 54.5332V50.0801H164.578V54.5332H163.65Z" fill="#636267"/>
<path d="M175.314 50.5195V51.1836C175.319 51.8672 175.319 52.6582 175.09 53.7129H176.33V54.4746H168.322V53.7129H174.152C174.387 52.6924 174.396 51.9453 174.396 51.2812H169.328V50.5195H175.314ZM169.299 58.7227V55.5879H175.324V58.7227H169.299ZM170.207 57.9707H174.406V56.3203H170.207V57.9707Z" fill="#636267"/>
<path d="M185.33 56.9648V57.7363H177.322V56.9648H179.236V54.6797C178.519 54.2842 178.079 53.6592 178.084 52.873C178.079 51.4961 179.432 50.5928 181.307 50.5879C183.187 50.5928 184.539 51.4961 184.539 52.873C184.539 53.6445 184.119 54.2646 183.416 54.6602V56.9648H185.33ZM178.982 52.873C178.982 53.8105 179.935 54.4209 181.307 54.4258C182.669 54.4209 183.636 53.8105 183.641 52.873C183.636 51.9307 182.669 51.3301 181.307 51.3301C179.935 51.3301 178.982 51.9307 178.982 52.873ZM180.154 56.9648H182.479V55.0215C182.122 55.1045 181.727 55.1484 181.307 55.1484C180.896 55.1484 180.506 55.1045 180.154 55.0215V56.9648ZM188.145 50.373C189.464 50.3828 190.435 51.1885 190.44 52.3359C190.435 53.4883 189.464 54.2891 188.145 54.2891C186.812 54.2891 185.846 53.4883 185.841 52.3359C185.846 51.1885 186.812 50.3828 188.145 50.373ZM186.749 52.3359C186.744 53.0586 187.34 53.5371 188.145 53.5371C188.946 53.5371 189.542 53.0586 189.542 52.3359C189.542 51.623 188.946 51.1445 188.145 51.1543C187.34 51.1445 186.744 51.623 186.749 52.3359ZM187.169 55.6758V54.9336H192.921V57.1406H188.096V57.9805H193.214V58.7227H187.198V56.4473H192.003V55.6758H187.169ZM191.993 54.5332V50.0801H192.921V54.5332H191.993Z" fill="#636267"/>
<defs>
<filter id="filter0_i_102_12287" x="21.4809" y="19" width="50.4331" height="47.7808" filterUnits="userSpaceOnUse" color-interpolation-filters="sRGB">
<feFlood flood-opacity="0" result="BackgroundImageFix"/>
<feBlend mode="normal" in="SourceGraphic" in2="BackgroundImageFix" result="shape"/>
<feColorMatrix in="SourceAlpha" type="matrix" values="0 0 0 0 0 0 0 0 0 0 0 0 0 0 0 0 0 0 127 0" result="hardAlpha"/>
<feOffset dx="-1.78079" dy="1.78079"/>
<feGaussianBlur stdDeviation="1.55819"/>
<feComposite in2="hardAlpha" operator="arithmetic" k2="-1" k3="1"/>
<feColorMatrix type="matrix" values="0 0 0 0 0.605029 0 0 0 0 0.605029 0 0 0 0 0.605029 0 0 0 0.15 0"/>
<feBlend mode="normal" in2="shape" result="effect1_innerShadow_102_12287"/>
</filter>
<linearGradient id="paint0_linear_102_12287" x1="23.5798" y1="33.3624" x2="26.5681" y2="62.3336" gradientUnits="userSpaceOnUse">
<stop stop-color="#FFDCB2"/>
<stop offset="1" stop-color="#999999"/>
</linearGradient>
<linearGradient id="paint1_linear_102_12287" x1="70.6741" y1="33.7738" x2="80.9297" y2="37.8108" gradientUnits="userSpaceOnUse">
<stop stop-color="#FFDCB2"/>
<stop offset="1" stop-color="#999999"/>
</linearGradient>
<linearGradient id="paint2_linear_102_12287" x1="47.5871" y1="19" x2="47.5871" y2="65" gradientUnits="userSpaceOnUse">
<stop stop-color="#FFDCB2"/>
<stop offset="1" stop-color="#D19A59"/>
</linearGradient>
</defs>
</svg>
