<svg width="320" height="84" viewBox="0 0 320 84" fill="none" xmlns="http://www.w3.org/2000/svg">
<rect width="320" height="84" rx="8" fill="#F3F2F9"/>
<path d="M88.3039 39L92.2928 27.6851H94.8011L98.7901 39H96.6188L95.6796 36.1989H91.4199L90.4807 39H88.3039ZM95.1271 34.5635L93.5912 29.9945H93.5028L91.9669 34.5635H95.1271ZM108.956 39H107.15L101.791 31.2707H101.697V39H99.669V27.6851H101.498L106.835 35.4199H106.934V27.6851H108.956V39ZM118.154 31.2983C117.966 30.6869 117.642 30.2118 117.182 29.8729C116.725 29.5304 116.16 29.3591 115.486 29.3591C114.871 29.3591 114.325 29.5157 113.85 29.8287C113.375 30.1381 113.003 30.5912 112.734 31.1878C112.465 31.7845 112.331 32.4991 112.331 33.3315C112.331 34.1713 112.464 34.8913 112.729 35.4917C112.998 36.0921 113.372 36.5488 113.85 36.8619C114.333 37.1713 114.893 37.326 115.53 37.326C116.093 37.326 116.585 37.2192 117.005 37.0055C117.429 36.7882 117.756 36.4807 117.988 36.0829C118.221 35.6814 118.342 35.2136 118.353 34.6796H115.734V33.0829H120.325V34.4365C120.325 35.3904 120.121 36.2247 119.712 36.9392C119.303 37.6501 118.736 38.1971 118.011 38.5801C117.285 38.9632 116.456 39.1547 115.524 39.1547C114.486 39.1547 113.57 38.9208 112.779 38.453C111.99 37.9816 111.377 37.3094 110.939 36.4365C110.504 35.5599 110.287 34.5322 110.287 33.3536C110.287 32.1676 110.51 31.1344 110.955 30.2541C111.401 29.3738 112.014 28.6998 112.795 28.232C113.58 27.7643 114.467 27.5304 115.458 27.5304C116.279 27.5304 117.031 27.6906 117.712 28.011C118.397 28.3278 118.959 28.7716 119.397 29.3425C119.839 29.9134 120.117 30.5654 120.232 31.2983H118.154ZM121.693 27.6851H125.925C126.776 27.6851 127.5 27.8361 128.097 28.1381C128.697 28.4365 129.15 28.8582 129.456 29.4033C129.762 29.9448 129.914 30.5783 129.914 31.3039C129.914 32.0773 129.741 32.7403 129.395 33.2928C129.049 33.8416 128.542 34.2486 127.876 34.5138L130.329 39H128.052L125.831 34.8508H123.721V39H121.693V27.6851ZM125.627 33.1602C126.378 33.1602 126.935 33.0037 127.296 32.6906C127.657 32.3775 127.837 31.9153 127.837 31.3039C127.837 30.6851 127.655 30.2118 127.29 29.884C126.925 29.5525 126.367 29.3867 125.616 29.3867H123.721V33.1602H125.627ZM132.274 27.6851L135.048 32.6961H135.164L137.937 27.6851H140.235L136.119 34.768V39H134.092V34.768L129.976 27.6851H132.274Z" fill="black"/>
<path d="M88.625 58V57.2188L91.0762 54.748C91.8525 53.9424 92.2383 53.4932 92.2383 52.873C92.2383 52.1748 91.6719 51.7305 90.9297 51.7305C90.1436 51.7305 89.6455 52.2285 89.6406 52.9805H88.625C88.6152 51.6865 89.6016 50.832 90.9492 50.832C92.3115 50.832 93.2539 51.6963 93.2637 52.8438C93.2539 53.6348 92.8828 54.2646 91.5547 55.5684L90.1191 57.0234V57.082H93.3809V58H88.625ZM96.7332 58.0977C95.0975 58.0977 94.1355 56.7793 94.1355 54.4648C94.1355 52.165 95.1072 50.832 96.7332 50.832C98.3543 50.832 99.326 52.165 99.3309 54.4648C99.326 56.7793 98.3689 58.0977 96.7332 58.0977ZM95.2098 54.4648C95.2049 56.2275 95.7762 57.1699 96.7332 57.1699C97.6854 57.1699 98.2566 56.2275 98.2566 54.4648C98.2566 52.707 97.6805 51.7451 96.7332 51.7402C95.7811 51.7451 95.2098 52.707 95.2098 54.4648ZM100.144 58V57.2188L102.595 54.748C103.372 53.9424 103.757 53.4932 103.757 52.873C103.757 52.1748 103.191 51.7305 102.449 51.7305C101.663 51.7305 101.165 52.2285 101.16 52.9805H100.144C100.134 51.6865 101.121 50.832 102.468 50.832C103.831 50.832 104.773 51.6963 104.783 52.8438C104.773 53.6348 104.402 54.2646 103.074 55.5684L101.638 57.0234V57.082H104.9V58H100.144ZM105.479 56.623V55.7539L108.604 50.9297H109.932V55.7148H110.899V56.623H109.932V58H108.916V56.623H105.479ZM106.612 55.7148H108.916V52.209H108.838L106.612 55.6562V55.7148Z" fill="#636267"/>
<path d="M119.617 50.0898V56.5547H118.689V53.5762H116.287V52.834H118.689V51.916H116.287V51.1738H118.689V50.0898H119.617ZM112.84 55.3047V50.6953H113.758V54.5234C114.92 54.5186 116.023 54.4551 117.273 54.2207L117.371 54.9824C115.984 55.2412 114.798 55.2949 113.514 55.3047H112.84ZM113.914 58.6445V55.9883H114.852V57.8926H119.842V58.6445H113.914Z" fill="#636267"/>
<path d="M126.311 50.9297V58H125.227V52.0039H125.188L123.498 53.1074V52.082L125.256 50.9297H126.311ZM127.807 58V57.2188L130.259 54.748C131.035 53.9424 131.421 53.4932 131.421 52.873C131.421 52.1748 130.854 51.7305 130.112 51.7305C129.326 51.7305 128.828 52.2285 128.823 52.9805H127.807C127.798 51.6865 128.784 50.832 130.132 50.832C131.494 50.832 132.436 51.6963 132.446 52.8438C132.436 53.6348 132.065 54.2646 130.737 55.5684L129.302 57.0234V57.082H132.563V58H127.807Z" fill="#636267"/>
<path d="M141.598 50.0898V55.2168H140.67V54.7969H138.961V54.2109H140.67V50.0898H141.598ZM134.303 53.3125C135.997 53.3174 138.136 53.2979 140.025 53.0977L140.074 53.6934C139.249 53.8105 138.39 53.8789 137.555 53.9229V55.2363H136.637V53.957C135.851 53.9814 135.094 53.9814 134.41 53.9766L134.303 53.3125ZM134.957 51.5547C134.952 50.7539 135.816 50.2363 137.145 50.2363C138.448 50.2363 139.322 50.7539 139.332 51.5547C139.322 52.3701 138.448 52.8633 137.145 52.8633C135.816 52.8633 134.952 52.3701 134.957 51.5547ZM135.611 56.1543V55.5098H141.598V57.3945H136.559V58.0684H141.861V58.7422H135.65V56.7793H140.68V56.1543H135.611ZM135.826 51.5547C135.821 51.9697 136.339 52.2383 137.145 52.2383C137.94 52.2383 138.453 51.9697 138.453 51.5547C138.453 51.1348 137.94 50.8613 137.145 50.8613C136.339 50.8613 135.821 51.1348 135.826 51.5547Z" fill="#636267"/>
<path d="M145.625 58V57.2188L148.076 54.748C148.853 53.9424 149.238 53.4932 149.238 52.873C149.238 52.1748 148.672 51.7305 147.93 51.7305C147.144 51.7305 146.646 52.2285 146.641 52.9805H145.625C145.615 51.6865 146.602 50.832 147.949 50.832C149.312 50.832 150.254 51.6963 150.264 52.8438C150.254 53.6348 149.883 54.2646 148.555 55.5684L147.119 57.0234V57.082H150.381V58H145.625ZM151.516 58L154.671 51.9062V51.8477H151.028V50.9297H155.784V51.8867L152.639 58H151.516Z" fill="#636267"/>
<path d="M159.803 50.373C161.121 50.3828 162.093 51.1885 162.098 52.3359C162.093 53.4883 161.121 54.2891 159.803 54.2891C158.47 54.2891 157.503 53.4883 157.498 52.3359C157.503 51.1885 158.47 50.3828 159.803 50.373ZM158.406 52.3359C158.401 53.0586 158.997 53.5371 159.803 53.5371C160.604 53.5371 161.199 53.0586 161.199 52.3359C161.199 51.623 160.604 51.1445 159.803 51.1543C158.997 51.1445 158.401 51.623 158.406 52.3359ZM158.826 55.6758V54.9336H164.578V57.1406H159.754V57.9805H164.871V58.7227H158.855V56.4473H163.66V55.6758H158.826ZM163.65 54.5332V50.0801H164.578V54.5332H163.65Z" fill="#636267"/>
<path d="M175.314 50.5195V51.1836C175.319 51.8672 175.319 52.6582 175.09 53.7129H176.33V54.4746H168.322V53.7129H174.152C174.387 52.6924 174.396 51.9453 174.396 51.2812H169.328V50.5195H175.314ZM169.299 58.7227V55.5879H175.324V58.7227H169.299ZM170.207 57.9707H174.406V56.3203H170.207V57.9707Z" fill="#636267"/>
<path d="M185.33 56.9648V57.7363H177.322V56.9648H179.236V54.6797C178.519 54.2842 178.079 53.6592 178.084 52.873C178.079 51.4961 179.432 50.5928 181.307 50.5879C183.187 50.5928 184.539 51.4961 184.539 52.873C184.539 53.6445 184.119 54.2646 183.416 54.6602V56.9648H185.33ZM178.982 52.873C178.982 53.8105 179.935 54.4209 181.307 54.4258C182.669 54.4209 183.636 53.8105 183.641 52.873C183.636 51.9307 182.669 51.3301 181.307 51.3301C179.935 51.3301 178.982 51.9307 178.982 52.873ZM180.154 56.9648H182.479V55.0215C182.122 55.1045 181.727 55.1484 181.307 55.1484C180.896 55.1484 180.506 55.1045 180.154 55.0215V56.9648ZM188.145 50.373C189.464 50.3828 190.435 51.1885 190.44 52.3359C190.435 53.4883 189.464 54.2891 188.145 54.2891C186.812 54.2891 185.846 53.4883 185.841 52.3359C185.846 51.1885 186.812 50.3828 188.145 50.373ZM186.749 52.3359C186.744 53.0586 187.34 53.5371 188.145 53.5371C188.946 53.5371 189.542 53.0586 189.542 52.3359C189.542 51.623 188.946 51.1445 188.145 51.1543C187.34 51.1445 186.744 51.623 186.749 52.3359ZM187.169 55.6758V54.9336H192.921V57.1406H188.096V57.9805H193.214V58.7227H187.198V56.4473H192.003V55.6758H187.169ZM191.993 54.5332V50.0801H192.921V54.5332H191.993Z" fill="#636267"/>
<path d="M285 36.75L291 42.75L285 48.75" stroke="#2C2C2E" stroke-width="1.323" stroke-linecap="square"/>
<path d="M20.9103 34.4348C21.5396 32.2421 24.3981 33.4885 25.7487 34.3858L23.7131 42.8661C22.5167 40.9693 20.281 36.6274 20.9103 34.4348Z" fill="url(#paint0_linear_102_12233)"/>
<path d="M74.3769 33.8989C73.8556 31.5631 70.9346 32.6684 69.5392 33.5131L71.3407 42.6861C72.6313 40.7858 74.8981 36.2347 74.3769 33.8989Z" fill="url(#paint1_linear_102_12233)"/>
<g filter="url(#filter0_i_102_12233)">
<ellipse cx="47.5871" cy="42" rx="24.3254" ry="23" fill="url(#paint2_linear_102_12233)"/>
</g>
<path d="M35.5391 29.0693C38.0271 31.4152 43.9203 34.6995 47.5884 29.0693" stroke="black" stroke-width="0.890395" stroke-linecap="round" stroke-linejoin="bevel"/>
<path d="M47.5859 29.0693C50.074 31.4152 55.9672 34.6995 59.6353 29.0693" stroke="black" stroke-width="0.890395" stroke-linecap="round" stroke-linejoin="bevel"/>
<path d="M43.2661 53.8448C44.3945 52.0007 48.4693 49.0975 55.741 52.2372" stroke="black" stroke-width="0.890395" stroke-linecap="round" stroke-linejoin="bevel"/>
<path fill-rule="evenodd" clip-rule="evenodd" d="M49.5327 41.0259C49.5266 41.1399 49.5234 41.2548 49.5234 41.3705C49.5234 44.8514 52.3453 47.6732 55.8262 47.6732C59.3071 47.6732 62.129 44.8514 62.129 41.3705C62.129 39.3877 61.2134 37.6188 59.782 36.4634L49.5327 41.0259Z" fill="white"/>
<path fill-rule="evenodd" clip-rule="evenodd" d="M51.0809 40.3382C51.0765 40.4209 51.0742 40.5042 51.0742 40.588C51.0742 43.1124 53.1207 45.1589 55.6452 45.1589C58.1696 45.1589 60.2161 43.1124 60.2161 40.588C60.2161 39.1501 59.5522 37.8672 58.5141 37.0293L51.0809 40.3382Z" fill="black"/>
<path fill-rule="evenodd" clip-rule="evenodd" d="M46.2798 41.0259C46.286 41.1399 46.2891 41.2548 46.2891 41.3704C46.2891 44.8514 43.4672 47.6732 39.9863 47.6732C36.5054 47.6732 33.6835 44.8514 33.6835 41.3704C33.6835 39.3877 34.5991 37.6188 36.0305 36.4634L46.2798 41.0259Z" fill="white"/>
<path fill-rule="evenodd" clip-rule="evenodd" d="M44.7316 40.3382C44.736 40.4209 44.7383 40.5042 44.7383 40.5879C44.7383 43.1124 42.6918 45.1589 40.1673 45.1589C37.6429 45.1589 35.5964 43.1124 35.5964 40.5879C35.5964 39.15 36.2603 37.8672 37.2984 37.0293L44.7316 40.3382Z" fill="black"/>
<defs>
<filter id="filter0_i_102_12233" x="21.4809" y="19" width="50.4331" height="47.7808" filterUnits="userSpaceOnUse" color-interpolation-filters="sRGB">
<feFlood flood-opacity="0" result="BackgroundImageFix"/>
<feBlend mode="normal" in="SourceGraphic" in2="BackgroundImageFix" result="shape"/>
<feColorMatrix in="SourceAlpha" type="matrix" values="0 0 0 0 0 0 0 0 0 0 0 0 0 0 0 0 0 0 127 0" result="hardAlpha"/>
<feOffset dx="-1.78079" dy="1.78079"/>
<feGaussianBlur stdDeviation="1.55819"/>
<feComposite in2="hardAlpha" operator="arithmetic" k2="-1" k3="1"/>
<feColorMatrix type="matrix" values="0 0 0 0 0.605029 0 0 0 0 0.605029 0 0 0 0 0.605029 0 0 0 0.15 0"/>
<feBlend mode="normal" in2="shape" result="effect1_innerShadow_102_12233"/>
</filter>
<linearGradient id="paint0_linear_102_12233" x1="23.5798" y1="33.3624" x2="26.5681" y2="62.3336" gradientUnits="userSpaceOnUse">
<stop stop-color="#FFB2B2"/>
<stop offset="1" stop-color="#999999"/>
</linearGradient>
<linearGradient id="paint1_linear_102_12233" x1="70.6741" y1="33.7738" x2="80.9297" y2="37.8108" gradientUnits="userSpaceOnUse">
<stop stop-color="#FFB2B2"/>
<stop offset="1" stop-color="#999999"/>
</linearGradient>
<linearGradient id="paint2_linear_102_12233" x1="47.5871" y1="19" x2="47.5871" y2="65" gradientUnits="userSpaceOnUse">
<stop stop-color="#FFB2B2"/>
<stop offset="1" stop-color="#EF8383"/>
</linearGradient>
</defs>
</svg>
