<svg width="56" height="21" viewBox="0 0 56 21" fill="none" xmlns="http://www.w3.org/2000/svg">
<path d="M5.16893 7.30299C5.3884 6.05934 5.90049 5.14488 6.70521 4.55963C7.50993 3.97438 8.61947 3.70005 10.0338 3.73663L9.66804 5.89473C9.0584 5.88254 8.60727 5.98618 8.31465 6.20565C8.02202 6.42512 7.82694 6.82138 7.7294 7.39444L7.65624 7.81509H9.43028L9.0645 9.91833H7.29046L5.86391 17.9472H3.28516L4.7117 9.91833H3.5412L3.90698 7.81509H5.07748L5.16893 7.30299Z" fill="white"/>
<path d="M13.3574 4.41332L10.9616 17.9472H8.3828L10.7787 4.41332H13.3574Z" fill="white"/>
<path d="M16.9297 7.81509L15.1373 17.9472H12.5586L14.3509 7.81509H16.9297Z" fill="white"/>
<path d="M16.9904 12.8812C17.1733 11.8326 17.5451 10.9181 18.106 10.1378C18.6669 9.34527 19.3619 8.73564 20.191 8.30889C21.0323 7.86995 21.9406 7.65049 22.916 7.65049C24.1719 7.65049 25.1534 7.9614 25.8606 8.58323C26.5799 9.20506 26.9823 10.089 27.0677 11.2351H24.306C24.2328 10.7962 24.0439 10.4548 23.739 10.211C23.4342 9.95491 23.0258 9.82688 22.5137 9.82688C21.7821 9.82688 21.1542 10.0951 20.6299 10.6316C20.1178 11.1559 19.7764 11.9057 19.6057 12.8812C19.5448 13.2226 19.5143 13.5152 19.5143 13.759C19.5143 14.454 19.685 14.9905 20.0264 15.3685C20.3678 15.7343 20.8433 15.9171 21.4529 15.9171C22.4771 15.9171 23.233 15.4538 23.7208 14.5272H26.4824C26.0069 15.6245 25.2936 16.4963 24.3426 17.1425C23.4037 17.7887 22.3186 18.1118 21.0871 18.1118C19.8069 18.1118 18.7827 17.7521 18.0146 17.0328C17.2586 16.3012 16.8806 15.3136 16.8806 14.0699C16.8806 13.692 16.9172 13.2957 16.9904 12.8812Z" fill="white"/>
<path d="M32.5647 12.8812L36.1493 17.9472H32.839L30.1688 13.6493L29.4007 17.9472H26.8219L29.2178 4.41332H31.7965L30.4431 12.0947L34.5765 7.81509H37.9234L32.5647 12.8812Z" fill="white"/>
<path d="M42.8428 7.65049C44.1353 7.65049 45.1594 8.01017 45.9154 8.72954C46.6713 9.43672 47.0493 10.3938 47.0493 11.6009C47.0493 11.9911 47.0188 12.3386 46.9579 12.6434C46.8847 13.0092 46.8055 13.3262 46.7201 13.5944H39.313C39.3008 13.6798 39.2947 13.8017 39.2947 13.9602C39.2947 14.5942 39.4776 15.0941 39.8434 15.4599C40.2214 15.8135 40.7152 15.9903 41.3248 15.9903C41.8369 15.9903 42.2759 15.8806 42.6416 15.6611C43.0196 15.4294 43.3244 15.1307 43.5561 14.7649H46.3177C45.8666 15.7403 45.1655 16.5451 44.2145 17.1791C43.2757 17.8009 42.2088 18.1118 41.0139 18.1118C39.7215 18.1118 38.6851 17.746 37.9048 17.0145C37.1244 16.2829 36.7343 15.2892 36.7343 14.0334C36.7343 13.6676 36.7709 13.2835 36.844 12.8812C37.0269 11.8326 37.3988 10.912 37.9596 10.1195C38.5327 9.32698 39.2399 8.71735 40.0812 8.2906C40.9225 7.86386 41.843 7.65049 42.8428 7.65049ZM44.4157 12.0399C44.4401 11.8448 44.4523 11.7046 44.4523 11.6192C44.4523 11.034 44.2633 10.5767 43.8853 10.2475C43.5073 9.91833 43.0135 9.75373 42.4039 9.75373C41.7577 9.75373 41.1785 9.961 40.6664 10.3756C40.1543 10.7779 39.7947 11.3327 39.5874 12.0399H44.4157Z" fill="white"/>
<path d="M51.0215 9.60741C51.4604 8.99778 51.9725 8.52226 52.5577 8.18087C53.143 7.83947 53.777 7.66877 54.4598 7.66877L53.9843 10.3573H53.3076C52.5517 10.3573 51.942 10.5219 51.4787 10.8511C51.0276 11.1803 50.6984 11.7411 50.4911 12.5337L49.5401 17.9472H46.9613L48.7536 7.81509H51.3324L51.0215 9.60741Z" fill="white"/>
<path d="M15.147 4.47609L15.7125 3.85221C15.7531 3.80623 15.7994 3.77377 15.8516 3.75484C15.9038 3.73591 15.9574 3.72861 16.0124 3.73295C16.0674 3.73728 16.1192 3.7529 16.1678 3.77978C16.2163 3.80666 16.257 3.84599 16.2898 3.89775L16.7506 4.60259L17.5089 4.92519C17.5864 4.95589 17.6455 5.00589 17.6861 5.07517C17.7267 5.14446 17.7439 5.21881 17.7376 5.29823C17.7348 5.33488 17.7265 5.37111 17.7129 5.40692C17.6994 5.44274 17.679 5.47648 17.6519 5.50815L17.0916 6.18315L17.0506 6.93601C17.0452 7.04315 17.003 7.13049 16.9239 7.19802C16.8448 7.26554 16.7564 7.29545 16.6587 7.28774C16.6525 7.28726 16.6193 7.28003 16.5589 7.26604L15.7569 6.97226L14.9187 7.13666C14.9029 7.14156 14.8858 7.14405 14.8674 7.14413C14.8489 7.14422 14.8321 7.14365 14.8168 7.14245C14.719 7.13474 14.6364 7.09134 14.5689 7.01225C14.5013 6.93316 14.4733 6.84028 14.4848 6.73361L14.5628 5.97906L14.1194 5.22949C14.0976 5.19397 14.0828 5.15745 14.075 5.11996C14.0672 5.08246 14.0648 5.04538 14.0676 5.00873C14.0737 4.93237 14.1014 4.8631 14.1509 4.80092C14.2004 4.73874 14.2659 4.69704 14.3475 4.67581L15.147 4.47609Z" fill="white"/>
<path d="M17.853 3.29251C19.7398 2.49158 24.4397 1.35585 28.1452 3.22041" stroke="white" stroke-width="1.14307" stroke-linecap="round" stroke-linejoin="bevel"/>
<path d="M19.2738 4.93027C20.7234 4.43184 24.3363 3.72983 27.1906 4.90919" stroke="white" stroke-width="1.14307" stroke-linecap="round" stroke-linejoin="bevel"/>
</svg>
