<svg width="39" height="32" viewBox="0 0 39 32" fill="none" xmlns="http://www.w3.org/2000/svg">
<path d="M0.632711 10.7372C1.07049 9.21184 3.05898 10.0789 3.99851 10.7031L2.5825 16.6025C1.75016 15.2829 0.194929 12.2625 0.632711 10.7372Z" fill="url(#paint0_linear_51_2266)"/>
<path d="M37.828 10.3644C37.4654 8.73946 35.4334 9.50837 34.4627 10.0959L35.7159 16.4772C36.6137 15.1552 38.1906 11.9893 37.828 10.3644Z" fill="url(#paint1_linear_51_2266)"/>
<g filter="url(#filter0_i_51_2266)">
<ellipse cx="19.191" cy="16" rx="16.922" ry="16" fill="url(#paint2_linear_51_2266)"/>
</g>
<path d="M10.809 7.00476C12.5398 8.63668 16.6394 10.9214 19.1911 7.00476" stroke="black" stroke-width="0.619405" stroke-linecap="round" stroke-linejoin="bevel"/>
<path d="M19.1913 7.00476C20.9221 8.63668 25.0217 10.9214 27.5734 7.00476" stroke="black" stroke-width="0.619405" stroke-linecap="round" stroke-linejoin="bevel"/>
<path d="M16.1863 24.2396C16.9713 22.9568 19.806 20.9371 24.8645 23.1213" stroke="black" stroke-width="0.619405" stroke-linecap="round" stroke-linejoin="bevel"/>
<path fill-rule="evenodd" clip-rule="evenodd" d="M20.5449 15.3222C20.5406 15.4016 20.5385 15.4815 20.5385 15.5619C20.5385 17.9834 22.5015 19.9464 24.923 19.9464C27.3445 19.9464 29.3075 17.9834 29.3075 15.5619C29.3075 14.1826 28.6706 12.9521 27.6749 12.1483L20.5449 15.3222Z" fill="white"/>
<path fill-rule="evenodd" clip-rule="evenodd" d="M21.6217 14.8437C21.6186 14.9012 21.6171 14.9592 21.6171 15.0174C21.6171 16.7736 23.0407 18.1972 24.7969 18.1972C26.553 18.1972 27.9766 16.7736 27.9766 15.0174C27.9766 14.0172 27.5148 13.1248 26.7927 12.5419L21.6217 14.8437Z" fill="black"/>
<path fill-rule="evenodd" clip-rule="evenodd" d="M18.2821 15.3222C18.2864 15.4016 18.2886 15.4815 18.2886 15.5619C18.2886 17.9834 16.3256 19.9464 13.904 19.9464C11.4825 19.9464 9.5195 17.9834 9.5195 15.5619C9.5195 14.1826 10.1564 12.9521 11.1522 12.1483L18.2821 15.3222Z" fill="white"/>
<path fill-rule="evenodd" clip-rule="evenodd" d="M17.2053 14.8437C17.2084 14.9012 17.21 14.9592 17.21 15.0175C17.21 16.7736 15.7863 18.1973 14.0302 18.1973C12.274 18.1973 10.8504 16.7736 10.8504 15.0175C10.8504 14.0172 11.3123 13.1248 12.0344 12.5419L17.2053 14.8437Z" fill="black"/>
<defs>
<filter id="filter0_i_51_2266" x="1.03023" y="0" width="35.0828" height="33.2388" filterUnits="userSpaceOnUse" color-interpolation-filters="sRGB">
<feFlood flood-opacity="0" result="BackgroundImageFix"/>
<feBlend mode="normal" in="SourceGraphic" in2="BackgroundImageFix" result="shape"/>
<feColorMatrix in="SourceAlpha" type="matrix" values="0 0 0 0 0 0 0 0 0 0 0 0 0 0 0 0 0 0 127 0" result="hardAlpha"/>
<feOffset dx="-1.23881" dy="1.23881"/>
<feGaussianBlur stdDeviation="1.08396"/>
<feComposite in2="hardAlpha" operator="arithmetic" k2="-1" k3="1"/>
<feColorMatrix type="matrix" values="0 0 0 0 0.605029 0 0 0 0 0.605029 0 0 0 0 0.605029 0 0 0 0.15 0"/>
<feBlend mode="normal" in2="shape" result="effect1_innerShadow_51_2266"/>
</filter>
<linearGradient id="paint0_linear_51_2266" x1="2.48975" y1="9.99118" x2="4.56855" y2="30.145" gradientUnits="userSpaceOnUse">
<stop stop-color="#FFB2B2"/>
<stop offset="1" stop-color="#999999"/>
</linearGradient>
<linearGradient id="paint1_linear_51_2266" x1="35.2521" y1="10.2773" x2="42.3865" y2="13.0857" gradientUnits="userSpaceOnUse">
<stop stop-color="#FFB2B2"/>
<stop offset="1" stop-color="#999999"/>
</linearGradient>
<linearGradient id="paint2_linear_51_2266" x1="19.191" y1="0" x2="19.191" y2="32" gradientUnits="userSpaceOnUse">
<stop stop-color="#FFB2B2"/>
<stop offset="1" stop-color="#EF8383"/>
</linearGradient>
</defs>
</svg>
