<svg width="40" height="32" viewBox="0 0 40 32" fill="none" xmlns="http://www.w3.org/2000/svg">
<path d="M1.47634 10.7372C1.91412 9.21184 3.90261 10.0789 4.84214 10.7031L3.42612 16.6025C2.59379 15.2829 1.03856 12.2625 1.47634 10.7372Z" fill="url(#paint0_linear_51_2304)"/>
<path d="M38.6714 10.3644C38.3088 8.73946 36.2768 9.50837 35.3061 10.0959L36.5593 16.4772C37.4571 15.1552 39.034 11.9893 38.6714 10.3644Z" fill="url(#paint1_linear_51_2304)"/>
<g filter="url(#filter0_i_51_2304)">
<ellipse cx="20.0347" cy="16" rx="16.922" ry="16" fill="url(#paint2_linear_51_2304)"/>
</g>
<path d="M10.1717 16.6024C10.1717 19.0239 12.1347 20.987 14.5563 20.987C16.9778 20.987 18.9408 19.0239 18.9408 16.6024C18.9408 14.1809 16.9778 12.2179 14.5563 12.2179C12.1347 12.2179 10.1717 14.1809 10.1717 16.6024Z" fill="white"/>
<path d="M20.7828 16.6024C20.7828 19.0239 22.7458 20.987 25.1673 20.987C27.5889 20.987 29.5519 19.0239 29.5519 16.6024C29.5519 14.1809 27.5889 12.2179 25.1673 12.2179C22.7458 12.2179 20.7828 14.1809 20.7828 16.6024Z" fill="white"/>
<path d="M21.9877 16.6026C21.9877 18.3588 23.4114 19.7824 25.1675 19.7824C26.9237 19.7824 28.3473 18.3588 28.3473 16.6026C28.3473 14.8465 26.9237 13.4229 25.1675 13.4229C23.4114 13.4229 21.9877 14.8465 21.9877 16.6026Z" fill="black"/>
<path d="M11.3766 16.6026C11.3766 18.3588 12.8003 19.7824 14.5564 19.7824C16.3126 19.7824 17.7362 18.3588 17.7362 16.6026C17.7362 14.8465 16.3126 13.4229 14.5564 13.4229C12.8003 13.4229 11.3766 14.8465 11.3766 16.6026Z" fill="black"/>
<path d="M11.6525 7.00476C13.3833 8.63668 17.4829 10.9214 20.0346 7.00476" stroke="black" stroke-width="0.619405" stroke-linecap="round" stroke-linejoin="bevel"/>
<path d="M20.0348 7.00476C21.7656 8.63668 25.8652 10.9214 28.4169 7.00476" stroke="black" stroke-width="0.619405" stroke-linecap="round" stroke-linejoin="bevel"/>
<path d="M17.8376 23.9402H22.3345" stroke="black" stroke-width="0.619405" stroke-linecap="round" stroke-linejoin="round"/>
<defs>
<filter id="filter0_i_51_2304" x="1.87386" y="0" width="35.0828" height="33.2388" filterUnits="userSpaceOnUse" color-interpolation-filters="sRGB">
<feFlood flood-opacity="0" result="BackgroundImageFix"/>
<feBlend mode="normal" in="SourceGraphic" in2="BackgroundImageFix" result="shape"/>
<feColorMatrix in="SourceAlpha" type="matrix" values="0 0 0 0 0 0 0 0 0 0 0 0 0 0 0 0 0 0 127 0" result="hardAlpha"/>
<feOffset dx="-1.23881" dy="1.23881"/>
<feGaussianBlur stdDeviation="1.08396"/>
<feComposite in2="hardAlpha" operator="arithmetic" k2="-1" k3="1"/>
<feColorMatrix type="matrix" values="0 0 0 0 0.605029 0 0 0 0 0.605029 0 0 0 0 0.605029 0 0 0 0.15 0"/>
<feBlend mode="normal" in2="shape" result="effect1_innerShadow_51_2304"/>
</filter>
<linearGradient id="paint0_linear_51_2304" x1="3.33337" y1="9.99118" x2="5.41218" y2="30.145" gradientUnits="userSpaceOnUse">
<stop stop-color="#F5F5F5"/>
<stop offset="1" stop-color="#999999"/>
</linearGradient>
<linearGradient id="paint1_linear_51_2304" x1="36.0955" y1="10.2773" x2="43.2299" y2="13.0857" gradientUnits="userSpaceOnUse">
<stop stop-color="#F5F5F5"/>
<stop offset="1" stop-color="#999999"/>
</linearGradient>
<linearGradient id="paint2_linear_51_2304" x1="20.0347" y1="0" x2="20.0347" y2="32" gradientUnits="userSpaceOnUse">
<stop stop-color="#F5F5F5"/>
<stop offset="1" stop-color="#E4E4E4"/>
</linearGradient>
</defs>
</svg>
