<svg width="39" height="32" viewBox="0 0 39 32" fill="none" xmlns="http://www.w3.org/2000/svg">
<path d="M0.644674 10.7372C1.08246 9.21184 3.07095 10.0789 4.01047 10.7031L2.59446 16.6025C1.76212 15.2829 0.206892 12.2625 0.644674 10.7372Z" fill="url(#paint0_linear_51_2342)"/>
<path d="M37.8397 10.3644C37.4771 8.73946 35.4451 9.50837 34.4744 10.0959L35.7276 16.4772C36.6254 15.1552 38.2023 11.9893 37.8397 10.3644Z" fill="url(#paint1_linear_51_2342)"/>
<g filter="url(#filter0_i_51_2342)">
<ellipse cx="19.203" cy="16" rx="16.922" ry="16" fill="url(#paint2_linear_51_2342)"/>
</g>
<path d="M9.41733 15.5619C9.41733 17.9834 11.3804 19.9464 13.8019 19.9464C16.2234 19.9464 18.1864 17.9834 18.1864 15.5619C18.1864 13.1404 16.2234 11.1774 13.8019 11.1774C11.3804 11.1774 9.41733 13.1404 9.41733 15.5619Z" fill="white"/>
<path d="M20.0283 15.5619C20.0283 17.9834 21.9913 19.9464 24.4128 19.9464C26.8343 19.9464 28.7974 17.9834 28.7974 15.5619C28.7974 13.1404 26.8343 11.1774 24.4128 11.1774C21.9913 11.1774 20.0283 13.1404 20.0283 15.5619Z" fill="white"/>
<path d="M10.8207 7.00476C12.5515 8.63668 16.6511 10.9214 19.2028 7.00476" stroke="black" stroke-width="0.619405" stroke-linecap="round" stroke-linejoin="bevel"/>
<path d="M19.203 7.00476C20.9338 8.63668 25.0334 10.9214 27.5852 7.00476" stroke="black" stroke-width="0.619405" stroke-linecap="round" stroke-linejoin="bevel"/>
<path d="M21.233 15.5619C21.233 17.318 22.6566 18.7417 24.4127 18.7417C26.1689 18.7417 27.5925 17.318 27.5925 15.5619C27.5925 13.8057 26.1689 12.3821 24.4127 12.3821C22.6566 12.3821 21.233 13.8057 21.233 15.5619Z" fill="black"/>
<path d="M10.6219 15.5619C10.6219 17.318 12.0455 18.7417 13.8017 18.7417C15.5578 18.7417 16.9814 17.318 16.9814 15.5619C16.9814 13.8057 15.5578 12.3821 13.8017 12.3821C12.0455 12.3821 10.6219 13.8057 10.6219 15.5619Z" fill="black"/>
<ellipse cx="19.2615" cy="24.0617" rx="2.28009" ry="2.46477" fill="black"/>
<defs>
<filter id="filter0_i_51_2342" x="1.0422" y="0" width="35.0828" height="33.2388" filterUnits="userSpaceOnUse" color-interpolation-filters="sRGB">
<feFlood flood-opacity="0" result="BackgroundImageFix"/>
<feBlend mode="normal" in="SourceGraphic" in2="BackgroundImageFix" result="shape"/>
<feColorMatrix in="SourceAlpha" type="matrix" values="0 0 0 0 0 0 0 0 0 0 0 0 0 0 0 0 0 0 127 0" result="hardAlpha"/>
<feOffset dx="-1.23881" dy="1.23881"/>
<feGaussianBlur stdDeviation="1.08396"/>
<feComposite in2="hardAlpha" operator="arithmetic" k2="-1" k3="1"/>
<feColorMatrix type="matrix" values="0 0 0 0 0.605029 0 0 0 0 0.605029 0 0 0 0 0.605029 0 0 0 0.15 0"/>
<feBlend mode="normal" in2="shape" result="effect1_innerShadow_51_2342"/>
</filter>
<linearGradient id="paint0_linear_51_2342" x1="2.50171" y1="9.99118" x2="4.58051" y2="30.145" gradientUnits="userSpaceOnUse">
<stop stop-color="#FFDCB2"/>
<stop offset="1" stop-color="#999999"/>
</linearGradient>
<linearGradient id="paint1_linear_51_2342" x1="35.2639" y1="10.2773" x2="42.3982" y2="13.0857" gradientUnits="userSpaceOnUse">
<stop stop-color="#FFDCB2"/>
<stop offset="1" stop-color="#999999"/>
</linearGradient>
<linearGradient id="paint2_linear_51_2342" x1="19.203" y1="0" x2="19.203" y2="32" gradientUnits="userSpaceOnUse">
<stop stop-color="#FFDCB2"/>
<stop offset="1" stop-color="#D19A59"/>
</linearGradient>
</defs>
</svg>
